TITLE:   V1 EDL Example 
FCM: NON-DROP FRAME
000001  THREESOME_HEADLEADER.MOV                                                                                                          V     C        01:00:00:00 01:00:08:00 03:00:00:00 03:00:08:00 
*FROM CLIP NAME:  THREESOME_HEADLEADER
000002  THE_THREESOME_4.THIRD_PR44_0719.MOV                                                                                               V     C        02:10:53:16 02:10:56:16 03:00:08:00 03:00:11:00 
*FROM CLIP NAME:  THE THREESOME_4.THIRD_PR44_0719
000003  A_0024C002_240118_110053_H1EEA                                                                                                    V     C        13:01:59:13 13:02:08:12 03:00:11:00 03:00:19:23 
*FROM CLIP NAME:  087_02
000004  A_0025C006_240118_143610_H1EEA                                                                                                    V     C        16:36:58:19 16:37:16:07 03:00:19:23 03:00:37:11 
*FROM CLIP NAME:  087A_06
000005  A0079C002_240209_090358_A1EEA                                                                                                     V     C        11:07:13:05 11:07:17:23 03:00:37:11 03:00:42:05 
*FROM CLIP NAME:  088_01_MED W SERIES
000006  B0087C004_240209_122912_H1ECZ                                                                                                     V     C        12:36:11:13 12:36:14:16 03:00:42:05 03:00:45:08 
*FROM CLIP NAME:  088B_03 SERIES
000007  B0087C001_240209_115835_H1ECZ                                                                                                     V     C        12:04:07:12 12:04:08:23 03:00:45:08 03:00:46:19 
*FROM CLIP NAME:  088A_01_CU SERIES
000008  B0087C003_240209_122312_H1ECZ                                                                                                     V     C        12:28:11:06 12:28:14:11 03:00:46:19 03:00:50:00 
*FROM CLIP NAME:  088B_02
000009  B0087C001_240209_115835_H1ECZ                                                                                                     V     C        12:04:32:16 12:04:35:11 03:00:50:00 03:00:52:19 
*FROM CLIP NAME:  088A_01_CU SERIES
000010  B0087C003_240209_122312_H1ECZ                                                                                                     V     C        12:28:27:18 12:28:31:10 03:00:52:19 03:00:56:11 
*FROM CLIP NAME:  088B_02
000011  B0087C001_240209_115835_H1ECZ                                                                                                     V     C        12:04:58:01 12:05:02:19 03:00:56:11 03:01:01:05 
*FROM CLIP NAME:  088A_01_CU SERIES
000012  A0079C002_240209_090358_A1EEA                                                                                                     V     C        11:12:35:10 11:12:39:06 03:01:01:05 03:01:05:01 
*FROM CLIP NAME:  088_01_MED W SERIES
000013  B0087C004_240209_122912_H1ECZ                                                                                                     V     C        12:37:32:03 12:37:37:21 03:01:05:01 03:01:10:19 
*FROM CLIP NAME:  088B_03 SERIES
000014  A0015C003_240113_105829_H1EEA                                                                                                     V     C        12:59:28:00 12:59:46:07 03:01:10:19 03:01:29:02 
*FROM CLIP NAME:  086A_01
000015  B0087C008_240209_132312_H1ECZ                                                                                                     V     C        13:24:46:14 13:24:48:15 03:01:29:02 03:01:31:03 
*FROM CLIP NAME:  089_03
000016  B0087C010_240209_133930_H1ECZ                                                                                                     V     C        13:41:33:10 13:41:38:04 03:01:31:03 03:01:35:21 
*FROM CLIP NAME:  089A_02
000017  B0087C007_240209_132043_H1ECZ                                                                                                     V     C        13:23:28:15 13:23:32:20 03:01:35:21 03:01:40:02 
*FROM CLIP NAME:  089_02
000018  B0087C009_240209_133729_H1ECZ                                                                                                     V     C        13:39:49:23 13:39:51:06 03:01:40:02 03:01:41:09 
*FROM CLIP NAME:  089A_01_WIDE HH
000019  A0015C003_240113_105829_H1EEA                                                                                                     V     C        12:59:56:09 13:00:11:06 03:01:41:09 03:01:56:06 
*FROM CLIP NAME:  086A_01
000020  B0088C002_240209_141256_H1ECZ                                                                                                     V     C        14:14:54:15 14:15:03:12 03:01:56:06 03:02:05:03 
*FROM CLIP NAME:  090_02
000021  B0088C005_240209_143159_H1ECZ                                                                                                     V     C        14:33:43:10 14:33:44:18 03:02:05:03 03:02:06:11 
*FROM CLIP NAME:  090A_02
000022  B0088C002_240209_141256_H1ECZ                                                                                                     V     C        14:15:06:13 14:15:07:19 03:02:06:11 03:02:07:17 
*FROM CLIP NAME:  090_02
000023  B0088C005_240209_143159_H1ECZ                                                                                                     V     C        14:33:51:13 14:33:52:22 03:02:07:17 03:02:09:02 
*FROM CLIP NAME:  090A_02
000024  B0088C002_240209_141256_H1ECZ                                                                                                     V     C        14:15:13:21 14:15:25:10 03:02:09:02 03:02:20:15 
*FROM CLIP NAME:  090_02
000025  B0088C005_240209_143159_H1ECZ                                                                                                     V     C        14:34:04:01 14:34:10:21 03:02:20:15 03:02:27:11 
*FROM CLIP NAME:  090A_02
000026  B0088C002_240209_141256_H1ECZ                                                                                                     V     C        14:15:30:12 14:15:41:20 03:02:27:11 03:02:38:19 
*FROM CLIP NAME:  090_02
000027  B0088C005_240209_143159_H1ECZ                                                                                                     V     C        14:34:22:06 14:34:24:18 03:02:38:19 03:02:41:07 
*FROM CLIP NAME:  090A_02
000028  A0015C003_240113_105829_H1EEA                                                                                                     V     C        13:00:18:02 13:00:25:11 03:02:41:07 03:02:48:16 
*FROM CLIP NAME:  086A_01
000029  A0015C001_240113_104125_H1EEA                                                                                                     V     C        12:43:05:19 12:43:17:20 03:02:48:16 03:03:00:17 
*FROM CLIP NAME:  086_01_WIDE
000030  A0015C007_240113_112952_H1EEA                                                                                                     V     C        13:31:32:03 13:31:41:18 03:03:00:17 03:03:10:08 
*FROM CLIP NAME:  V086B_01_INSERT SERIES
000031  A0015C004_240113_110518_H1EEA                                                                                                     V     C        13:07:54:01 13:07:55:12 03:03:10:08 03:03:11:19 
*FROM CLIP NAME:  086A_02
000032  A0015C007_240113_112952_H1EEA                                                                                                     V     C        13:32:19:18 13:32:22:04 03:03:11:19 03:03:14:05 
*FROM CLIP NAME:  V086B_01_INSERT SERIES
000033  A0015C004_240113_110518_H1EEA                                                                                                     V     C        13:08:00:01 13:08:07:23 03:03:14:05 03:03:22:03 
*FROM CLIP NAME:  086A_02
000034  B0089C008_240209_172524_H1ECZ                                                                                                     V     C        17:27:24:13 17:27:27:16 03:03:22:03 03:03:25:06 
*FROM CLIP NAME:  091B_02
000035  B0089C004_240209_170706_H1ECZ                                                                                                     V     C        17:08:51:21 17:08:56:12 03:03:25:06 03:03:29:21 
*FROM CLIP NAME:  091A_01_MED
000036  B0089C002_240209_170017_H1ECZ                                                                                                     V     C        17:02:07:09 17:02:11:21 03:03:29:21 03:03:34:09 
*FROM CLIP NAME:  091_02
000037  B0089C005_240209_170850_H1ECZ                                                                                                     V     C        17:10:47:04 17:10:52:09 03:03:34:09 03:03:39:14 
*FROM CLIP NAME:  091A_02
000038  B0089C003_240209_170227_H1ECZ                                                                                                     V     C        17:04:46:07 17:04:54:15 03:03:39:14 03:03:47:22 
*FROM CLIP NAME:  091_03
000039  B0089C004_240209_170706_H1ECZ                                                                                                     V     C        17:09:15:17 17:09:22:15 03:03:47:22 03:03:54:20 
*FROM CLIP NAME:  091A_01_MED
000040  B0089C003_240209_170227_H1ECZ                                                                                                     V     C        17:05:03:09 17:05:06:17 03:03:54:20 03:03:58:04 
*FROM CLIP NAME:  091_03
000041  B0089C009_240209_172846_H1ECZ                                                                                                     V     C        17:30:36:11 17:30:42:13 03:03:58:04 03:04:04:06 
*FROM CLIP NAME:  091B_03
000042  B0089C012_240209_174829_H1ECZ                                                                                                     V     C        17:50:30:14 17:50:57:18 03:04:04:06 03:04:31:10 
*FROM CLIP NAME:  092_03
000043  B0085C006_240208_203412_H1ECZ                                                                                                     V     C        20:35:58:04 20:36:13:14 03:04:31:10 03:04:46:20 
*FROM CLIP NAME:  500_01_WIDE ZOOM IN
000044  B0085C006_240208_203412_H1ECZ                                                                                                     V     C        20:36:13:14 20:36:43:22 03:04:46:20 03:05:17:04 
*FROM CLIP NAME:  500_01_WIDE ZOOM IN
000045  A0002C006_240110_085032_H1EEA                                                                                                     V     C        10:51:16:22 10:51:22:05 03:05:17:04 03:05:22:11 
*FROM CLIP NAME:  076A_03
000046  A0002C002_240110_081020_H1EEA                                                                                                     V     C        10:12:14:18 10:12:21:21 03:05:22:11 03:05:29:14 
*FROM CLIP NAME:  076_01
000047  A0002C004_240110_084159_H1EEA                                                                                                     V     C        10:45:10:11 10:45:17:16 03:05:29:14 03:05:36:19 
*FROM CLIP NAME:  076A_01
000048  A0002C002_240110_081020_H1EEA                                                                                                     V     C        10:13:04:05 10:13:08:15 03:05:36:19 03:05:41:05 
*FROM CLIP NAME:  076_01
000049  B0085C006_240208_203412_H1ECZ                                                                                                     V     C        20:37:07:23 20:37:19:13 03:05:41:05 03:05:52:19 
*FROM CLIP NAME:  500_01_WIDE ZOOM IN
000050  B0091C002_240209_205141_A1ECZ                                                                                                     V     C        20:53:40:12 20:53:46:04 03:05:52:19 03:05:58:11 
*FROM CLIP NAME:  098_02
000051  B0091C003_240209_210341_A1ECZ                                                                                                     V     C        21:07:14:17 21:07:34:15 03:05:58:11 03:06:18:09 
*FROM CLIP NAME:  098A_01_CU
000052  B0085C006_240208_203412_H1ECZ                                                                                                     V     C        20:39:58:13 20:40:04:22 03:06:18:09 03:06:24:18 
*FROM CLIP NAME:  500_01_WIDE ZOOM IN
000053  A0017C003_240113_175143_H1EEA                                                                                                     V     C        19:52:16:05 19:52:50:17 03:06:24:18 03:06:59:06 
*FROM CLIP NAME:  093_03
000054  A0011C005_240112_153037_H1EEA                                                                                                     V     C        17:31:35:10 17:31:41:08 03:06:59:06 03:07:05:04 
*FROM CLIP NAME:  094A_01_MED SERIES
000055  A0011C010_240112_164832_H1EEA                                                                                                     V     C        18:50:42:20 18:50:45:18 03:07:05:04 03:07:08:02 
*FROM CLIP NAME:  094D_01_MED CU SERIES
000056  A0011C005_240112_153037_H1EEA                                                                                                     V     C        17:33:55:05 17:33:58:11 03:07:08:02 03:07:11:08 
*FROM CLIP NAME:  094A_01_MED SERIES
000057  A0011C004_240112_152026_H1EEA                                                                                                     V     C        17:23:16:11 17:23:27:03 03:07:11:08 03:07:22:00 
*FROM CLIP NAME:  094_03
000058  A0011C008_240112_161215_H1EEA                                                                                                     V     C        18:13:57:03 18:14:06:01 03:07:22:00 03:07:30:22 
*FROM CLIP NAME:  094B_03
000059  A0011C009_240112_162743_H1EEA                                                                                                     V     C        18:31:00:13 18:31:04:15 03:07:30:22 03:07:35:00 
*FROM CLIP NAME:  094C_01_INSTA INSERT VFX
000060  A0011C006_240112_160513_H1EEA                                                                                                     V     C        18:07:28:16 18:07:32:03 03:07:35:00 03:07:38:11 
*FROM CLIP NAME:  094B_01_MED DOLLY PUSH
000061  A0011C009_240112_162743_H1EEA                                                                                                     V     C        18:31:09:19 18:31:14:05 03:07:38:11 03:07:42:21 
*FROM CLIP NAME:  094C_01_INSTA INSERT VFX
000062  A0011C008_240112_161215_H1EEA                                                                                                     V     C        18:14:26:03 18:14:30:00 03:07:42:21 03:07:46:18 
*FROM CLIP NAME:  094B_03
000063  A0011C004_240112_152026_H1EEA                                                                                                     V     C        17:23:36:07 17:23:39:23 03:07:46:18 03:07:50:10 
*FROM CLIP NAME:  094_03
000064  A0012C002_240112_180541_H1EEA                                                                                                     V     C        20:06:30:15 20:06:38:02 03:07:50:10 03:07:57:21 
*FROM CLIP NAME:  096_02
000065  A0012C008_240112_184814_H1EEA                                                                                                     V     C        20:50:07:22 20:50:10:09 03:07:57:21 03:08:00:08 
*FROM CLIP NAME:  096B_02
000066  A0012C002_240112_180541_H1EEA                                                                                                     V     C        20:06:45:00 20:06:48:17 03:08:00:08 03:08:04:01 
*FROM CLIP NAME:  096_02
000067  A0012C008_240112_184814_H1EEA                                                                                                     V     C        20:49:06:15 20:49:10:17 03:08:04:01 03:08:08:03 
*FROM CLIP NAME:  096B_02
000068  A0012C002_240112_180541_H1EEA                                                                                                     V     C        20:06:59:17 20:07:07:19 03:08:08:03 03:08:16:05 
*FROM CLIP NAME:  096_02
000069  A0012C007_240112_184609_H1EEA                                                                                                     V     C        20:47:51:19 20:47:54:16 03:08:16:05 03:08:19:02 
*FROM CLIP NAME:  096B_01_MED CU OTS
000070  A0012C006_240112_183558_H1EEA                                                                                                     V     C        20:37:42:14 20:37:47:09 03:08:19:02 03:08:23:21 
*FROM CLIP NAME:  096A_03
000071  A0014C001_240112_194300_H1EEA                                                                                                     V     C        21:49:45:19 21:49:48:07 03:08:23:21 03:08:26:09 
*FROM CLIP NAME:  096E_01_WIDE SERIES
000072  A0012C006_240112_183558_H1EEA                                                                                                     V     C        20:37:48:09 20:37:51:16 03:08:26:09 03:08:29:16 
*FROM CLIP NAME:  096A_03
000073  A0014C001_240112_194300_H1EEA                                                                                                     V     C        21:49:51:12 21:49:56:04 03:08:29:16 03:08:34:08 
*FROM CLIP NAME:  096E_01_WIDE SERIES
000074  A0012C006_240112_183558_H1EEA                                                                                                     V     C        20:38:16:21 20:38:22:09 03:08:34:08 03:08:39:20 
*FROM CLIP NAME:  096A_03
000075  A0014C001_240112_194300_H1EEA                                                                                                     V     C        21:46:36:04 21:46:41:11 03:08:39:20 03:08:45:03 
*FROM CLIP NAME:  096E_01_WIDE SERIES
000076  A0012C006_240112_183558_H1EEA                                                                                                     V     C        20:38:37:23 20:38:40:03 03:08:45:03 03:08:47:07 
*FROM CLIP NAME:  096A_03
000077  A0014C001_240112_194300_H1EEA                                                                                                     V     C        21:47:07:06 21:47:11:16 03:08:47:07 03:08:51:17 
*FROM CLIP NAME:  096E_01_WIDE SERIES
000078  A0012C003_240112_181003_H1EEA                                                                                                     V     C        20:14:29:17 20:14:47:14 03:08:51:17 03:09:09:14 
*FROM CLIP NAME:  096_03
000079  A0013C002_240112_190604_H1EEA                                                                                                     V     C        21:08:02:12 21:08:09:20 03:09:09:14 03:09:16:22 
*FROM CLIP NAME:  096C_02
000080  A0012C002_240112_180541_H1EEA                                                                                                     V     C        20:08:28:06 20:08:32:05 03:09:16:22 03:09:20:21 
*FROM CLIP NAME:  096_02
000081  A0013C002_240112_190604_H1EEA                                                                                                     V     C        21:08:13:14 21:08:29:04 03:09:20:21 03:09:36:11 
*FROM CLIP NAME:  096C_02
000082  A0012C002_240112_180541_H1EEA                                                                                                     V     C        20:08:53:17 20:08:58:09 03:09:36:11 03:09:41:03 
*FROM CLIP NAME:  096_02
000083  A0013C005_240112_192811_H1EEA                                                                                                     V     C        21:29:55:07 21:30:00:03 03:09:41:03 03:09:45:23 
*FROM CLIP NAME:  096D_02
000084  A0014C004_240112_200911_H1EEA                                                                                                     V     C        22:10:17:12 22:10:23:00 03:09:45:23 03:09:51:11 
*FROM CLIP NAME:  096F_03
000085  A0012C003_240112_181003_H1EEA                                                                                                     V     C        20:15:39:05 20:15:40:19 03:09:51:11 03:09:53:01 
*FROM CLIP NAME:  096_03
000086  A0013C001_240112_185920_H1EEA                                                                                                     V     C        21:01:57:05 21:02:04:21 03:09:53:01 03:10:00:17 
*FROM CLIP NAME:  096C_01_MED CU OTS
000087  A0014C002_240112_200439_H1EEA                                                                                                     V     C        22:05:54:11 22:06:01:20 03:10:00:17 03:10:08:02 
*FROM CLIP NAME:  096F_01_CU
000088  A0075C004_240207_195441_H1EEA                                                                                                     V     C        21:55:48:17 21:55:58:09 03:10:08:02 03:10:17:18 
*FROM CLIP NAME:  097_05
000089  A0004C005_240110_140735_H1EEA                                                                                                     V     C        16:08:25:09 16:08:48:08 03:10:17:18 03:10:40:17 
*FROM CLIP NAME:  099A_05
000090  A0005C003_240110_171658_H1EEA                                                                                                     V     C        19:17:39:09 19:17:42:05 03:10:40:17 03:10:43:13 
*FROM CLIP NAME:  099B_03
000091  A0005C010_240110_175426_H1EEA                                                                                                     V     C        19:55:06:15 19:55:07:07 03:10:43:13 03:10:44:05 
*FROM CLIP NAME:  099C_05
000092  A0005C010_240110_175426_H1EEA                                                                                                     V     C        19:55:07:07 19:55:08:16 03:10:44:05 03:10:45:14 
*FROM CLIP NAME:  099C_05
000093  A0005C002_240110_171228_H1EEA                                                                                                     V     C        19:13:21:01 19:13:22:22 03:10:45:14 03:10:47:11 
*FROM CLIP NAME:  099B_02
000094  A0005C010_240110_175426_H1EEA                                                                                                     V     C        19:55:12:03 19:55:14:07 03:10:47:11 03:10:49:15 
*FROM CLIP NAME:  099C_05
000095  A0005C010_240110_175426_H1EEA                                                                                                     V     C        19:55:14:07 19:55:19:23 03:10:49:15 03:10:55:07 
*FROM CLIP NAME:  099C_05
000096  A0005C002_240110_171228_H1EEA                                                                                                     V     C        19:13:28:23 19:13:32:21 03:10:55:07 03:10:59:05 
*FROM CLIP NAME:  099B_02
000097  A0005C009_240110_175143_H1EEA                                                                                                     V     C        19:52:38:08 19:52:42:00 03:10:59:05 03:11:02:21 
*FROM CLIP NAME:  099C_04
000098  A0005C002_240110_171228_H1EEA                                                                                                     V     C        19:13:36:06 19:13:38:19 03:11:02:21 03:11:05:10 
*FROM CLIP NAME:  099B_02
000099  A0005C012_240110_180051_H1EEA                                                                                                     V     C        20:01:47:13 20:01:56:20 03:11:05:10 03:11:14:17 
*FROM CLIP NAME:  099C_07
000100  A0005C003_240110_171658_H1EEA                                                                                                     V     C        19:18:21:03 19:18:23:00 03:11:14:17 03:11:16:14 
*FROM CLIP NAME:  099B_03
000101  A0005C010_240110_175426_H1EEA                                                                                                     V     C        19:55:50:00 19:55:57:13 03:11:16:14 03:11:24:03 
*FROM CLIP NAME:  099C_05
000102  A0005C002_240110_171228_H1EEA                                                                                                     V     C        19:13:57:15 19:14:05:19 03:11:24:03 03:11:32:07 
*FROM CLIP NAME:  099B_02
000103  A0005C010_240110_175426_H1EEA                                                                                                     V     C        19:56:06:19 19:56:12:00 03:11:32:07 03:11:37:12 
*FROM CLIP NAME:  099C_05
000104  A0005C002_240110_171228_H1EEA                                                                                                     V     C        19:14:13:13 19:14:15:07 03:11:37:12 03:11:39:06 
*FROM CLIP NAME:  099B_02
000105  A0005C010_240110_175426_H1EEA                                                                                                     V     C        19:56:16:05 19:56:19:04 03:11:39:06 03:11:42:05 
*FROM CLIP NAME:  099C_05
000106  A0006C004_240110_183514_H1EEA                                                                                                     V     C        20:36:09:09 20:36:12:02 03:11:42:05 03:11:44:22 
*FROM CLIP NAME:  099E_02
000107  A0005C003_240110_171658_H1EEA                                                                                                     V     C        19:19:16:22 19:19:25:12 03:11:44:22 03:11:53:12 
*FROM CLIP NAME:  099B_03
000108  A0006C004_240110_183514_H1EEA                                                                                                     V     C        20:36:25:18 20:36:34:19 03:11:53:12 03:12:02:13 
*FROM CLIP NAME:  099E_02
000109  A0005C003_240110_171658_H1EEA                                                                                                     V     C        19:19:28:08 19:19:33:12 03:12:02:13 03:12:07:17 
*FROM CLIP NAME:  099B_03
000110  A0006C004_240110_183514_H1EEA                                                                                                     V     C        20:36:41:17 20:36:44:18 03:12:07:17 03:12:10:18 
*FROM CLIP NAME:  099E_02
000111  A0004C009_240110_150531_H1EEA                                                                                                     V     C        17:06:16:09 17:06:25:15 03:12:10:18 03:12:20:00 
*FROM CLIP NAME:  100_04
000112  A0004C015_240110_160048_H1EEA                                                                                                     V     C        18:01:51:16 18:01:54:20 03:12:20:00 03:12:23:04 
*FROM CLIP NAME:  100B_01_MED CU
000113  A0004C014_240110_153936_H1EEA                                                                                                     V     C        17:41:43:15 17:41:47:14 03:12:23:04 03:12:27:03 
*FROM CLIP NAME:  100A_05
000114  A0004C007_240110_145949_H1EEA                                                                                                     V     C        17:01:00:23 17:01:08:05 03:12:27:03 03:12:34:09 
*FROM CLIP NAME:  100_02
000115  A0004C016_240110_160351_H1EEA                                                                                                     V     C        18:05:08:03 18:05:09:08 03:12:34:09 03:12:35:14 
*FROM CLIP NAME:  100B_02
000116  A0004C018_240110_161505_H1EEA                                                                                                     V     C        18:16:10:06 18:16:11:18 03:12:35:14 03:12:37:02 
*FROM CLIP NAME:  100C_01_MED SERIES
000117  A0004C015_240110_160048_H1EEA                                                                                                     V     C        18:02:21:00 18:02:22:09 03:12:37:02 03:12:38:11 
*FROM CLIP NAME:  100B_01_MED CU
000118  A0004C012_240110_153522_H1EEA                                                                                                     V     C        17:36:51:04 17:37:00:21 03:12:38:11 03:12:48:04 
*FROM CLIP NAME:  100A_03
000119  B0051C003_240128_225703_H1ECZ                                                                                                     V     C        22:59:38:19 22:59:49:12 03:12:48:04 03:12:58:21 
*FROM CLIP NAME:  101A_01_CU
000120  B0052C001_240128_232151_H1ECZ                                                                                                     V     C        23:24:01:18 23:24:10:03 03:12:58:21 03:13:07:06 
*FROM CLIP NAME:  101B_01_MED
000121  B0051C002_240128_224758_H1ECZ                                                                                                     V     C        22:50:08:20 22:50:12:17 03:13:07:06 03:13:11:03 
*FROM CLIP NAME:  101_02
000122  B0051C002_240128_224758_H1ECZ                                                                                                     V     C        22:50:12:17 22:50:14:23 03:13:11:03 03:13:13:09 
*FROM CLIP NAME:  101_02
000123  B0051C002_240128_224758_H1ECZ                                                                                                     V     C        22:50:14:23 22:50:22:17 03:13:13:09 03:13:21:03 
*FROM CLIP NAME:  101_02
000124  B0053C001_240128_234657_H1ECZ                                                                                                     V     C        23:49:22:04 23:49:30:06 03:13:21:03 03:13:29:05 
*FROM CLIP NAME:  101C_01_CU
000125  B0051C003_240128_225703_H1ECZ                                                                                                     V     C        23:00:36:21 23:00:47:22 03:13:29:05 03:13:40:06 
*FROM CLIP NAME:  101A_01_CU
000126  B0053C001_240128_234657_H1ECZ                                                                                                     V     C        23:49:37:16 23:49:40:19 03:13:40:06 03:13:43:09 
*FROM CLIP NAME:  101C_01_CU
000127  B0051C003_240128_225703_H1ECZ                                                                                                     V     C        23:00:51:01 23:00:53:02 03:13:43:09 03:13:45:10 
*FROM CLIP NAME:  101A_01_CU
000128  B0051C003_240128_225703_H1ECZ                                                                                                     V     C        23:00:53:02 23:00:55:03 03:13:45:10 03:13:47:11 
*FROM CLIP NAME:  101A_01_CU
000129  B0053C001_240128_234657_H1ECZ                                                                                                     V     C        23:49:52:12 23:49:58:20 03:13:47:11 03:13:53:19 
*FROM CLIP NAME:  101C_01_CU
000130  B0051C004_240128_230410_H1ECZ                                                                                                     V     C        23:07:24:20 23:07:26:21 03:13:53:19 03:13:55:20 
*FROM CLIP NAME:  101A_02
000131  B0053C001_240128_234657_H1ECZ                                                                                                     V     C        23:50:03:09 23:50:07:23 03:13:55:20 03:14:00:10 
*FROM CLIP NAME:  101C_01_CU
000132  B0051C004_240128_230410_H1ECZ                                                                                                     V     C        23:07:42:09 23:07:46:18 03:14:00:10 03:14:04:19 
*FROM CLIP NAME:  101A_02
000133  B0053C001_240128_234657_H1ECZ                                                                                                     V     C        23:50:12:08 23:50:17:13 03:14:04:19 03:14:10:00 
*FROM CLIP NAME:  101C_01_CU
000134  B0051C004_240128_230410_H1ECZ                                                                                                     V     C        23:07:49:23 23:07:59:18 03:14:10:00 03:14:19:19 
*FROM CLIP NAME:  101A_02
000135  B0053C001_240128_234657_H1ECZ                                                                                                     V     C        23:50:25:10 23:50:33:09 03:14:19:19 03:14:27:18 
*FROM CLIP NAME:  101C_01_CU
000136  B0051C002_240128_224758_H1ECZ                                                                                                     V     C        22:52:41:18 22:52:49:20 03:14:27:18 03:14:35:20 
*FROM CLIP NAME:  101_02
000137  B0052C002_240128_232842_H1ECZ                                                                                                     V     C        23:34:44:23 23:34:46:23 03:14:35:20 03:14:37:20 
*FROM CLIP NAME:  101B_02
000138  A0042C003_240124_161957_H1EEA                                                                                                     V     C        18:20:55:09 18:21:03:03 03:14:40:20 03:14:48:14 
*FROM CLIP NAME:  103_03
000139  A0042C006_240124_164910_H1EEA                                                                                                     V     C        18:50:13:03 18:50:15:07 03:14:48:14 03:14:50:18 
*FROM CLIP NAME:  103B_01
000140  A0042C004_240124_163216_H1EEA                                                                                                     V     C        18:34:20:09 18:34:21:22 03:14:50:18 03:14:52:07 
*FROM CLIP NAME:  103A_01_MED
000141  A0042C003_240124_161957_H1EEA                                                                                                     V     C        18:21:09:19 18:21:11:22 03:14:52:07 03:14:54:10 
*FROM CLIP NAME:  103_03
000142  A0042C007_240124_165133_H1EEA                                                                                                     V     C        18:52:37:13 18:52:39:18 03:14:54:10 03:14:56:15 
*FROM CLIP NAME:  103B_02
000143  A0042C003_240124_161957_H1EEA                                                                                                     V     C        18:21:12:11 18:21:13:17 03:14:56:15 03:14:57:21 
*FROM CLIP NAME:  103_03
000144  A0042C005_240124_163545_H1EEA                                                                                                     V     C        18:37:47:03 18:37:49:09 03:14:57:21 03:15:00:03 
*FROM CLIP NAME:  103A_02
000145  A0042C007_240124_165133_H1EEA                                                                                                     V     C        18:52:40:10 18:52:42:09 03:15:00:03 03:15:02:02 
*FROM CLIP NAME:  103B_02
000146  A0042C005_240124_163545_H1EEA                                                                                                     V     C        18:38:00:04 18:38:02:08 03:15:02:02 03:15:04:06 
*FROM CLIP NAME:  103A_02
000147  A0042C007_240124_165133_H1EEA                                                                                                     V     C        18:54:25:03 18:54:30:05 03:15:04:06 03:15:09:08 
*FROM CLIP NAME:  103B_02
000148  A0042C003_240124_161957_H1EEA                                                                                                     V     C        18:21:34:08 18:21:39:01 03:15:09:08 03:15:14:01 
*FROM CLIP NAME:  103_03
000149  A0042C007_240124_165133_H1EEA                                                                                                     V     C        18:53:25:03 18:53:28:02 03:15:14:01 03:15:17:00 
*FROM CLIP NAME:  103B_02
000150  A0042C003_240124_161957_H1EEA                                                                                                     V     C        18:21:41:17 18:21:44:07 03:15:17:00 03:15:19:14 
*FROM CLIP NAME:  103_03
000151  A0042C003_240124_161957_H1EEA                                                                                                     V     C        18:21:44:07 18:21:51:09 03:15:19:14 03:15:26:16 
*FROM CLIP NAME:  103_03
000152  A0043C002_240124_175615_H1EEA                                                                                                     V     C        19:57:26:19 19:57:29:12 03:15:26:16 03:15:29:09 
*FROM CLIP NAME:  104_02
000153  A0043C002_240124_175615_H1EEA                                                                                                     V     C        19:57:29:12 19:57:36:04 03:15:29:09 03:15:36:01 
*FROM CLIP NAME:  104_02
000154  A0043C005_240124_181938_H1EEA                                                                                                     V     C        20:20:43:12 20:20:49:18 03:15:36:01 03:15:42:07 
*FROM CLIP NAME:  104A_01_CU
000155  A0043C001_240124_174856_H1EEA                                                                                                     V     C        19:50:34:08 19:50:36:07 03:15:42:07 03:15:44:06 
*FROM CLIP NAME:  104_01_CU
000156  A0043C005_240124_181938_H1EEA                                                                                                     V     C        20:20:52:22 20:20:54:13 03:15:44:06 03:15:45:21 
*FROM CLIP NAME:  104A_01_CU
000157  A0043C002_240124_175615_H1EEA                                                                                                     V     C        19:57:49:22 19:57:54:08 03:15:45:21 03:15:50:07 
*FROM CLIP NAME:  104_02
000158  A0043C005_240124_181938_H1EEA                                                                                                     V     C        20:21:05:03 20:21:12:16 03:15:50:07 03:15:57:20 
*FROM CLIP NAME:  104A_01_CU
000159  A0043C003_240124_175904_H1EEA                                                                                                     V     C        20:00:44:15 20:00:52:01 03:15:57:20 03:16:05:06 
*FROM CLIP NAME:  104_03
000160  A0043C005_240124_181938_H1EEA                                                                                                     V     C        20:21:20:23 20:21:25:07 03:16:05:06 03:16:09:14 
*FROM CLIP NAME:  104A_01_CU
000161  A0043C003_240124_175904_H1EEA                                                                                                     V     C        20:00:56:09 20:01:09:13 03:16:09:14 03:16:22:18 
*FROM CLIP NAME:  104_03
000162  A0043C005_240124_181938_H1EEA                                                                                                     V     C        20:21:41:10 20:21:50:09 03:16:22:18 03:16:31:17 
*FROM CLIP NAME:  104A_01_CU
000163  A0043C003_240124_175904_H1EEA                                                                                                     V     C        20:01:23:12 20:01:31:14 03:16:31:17 03:16:39:19 
*FROM CLIP NAME:  104_03
000164  A0043C005_240124_181938_H1EEA                                                                                                     V     C        20:22:01:05 20:22:07:19 03:16:39:19 03:16:46:09 
*FROM CLIP NAME:  104A_01_CU
000165  A0043C004_240124_180942_H1EEA                                                                                                     V     C        20:13:55:21 20:13:58:23 03:16:46:09 03:16:49:11 
*FROM CLIP NAME:  104_04
000166  A0043C005_240124_181938_H1EEA                                                                                                     V     C        20:22:13:05 20:22:16:02 03:16:49:11 03:16:52:08 
*FROM CLIP NAME:  104A_01_CU
000167  A0043C004_240124_180942_H1EEA                                                                                                     V     C        20:14:01:20 20:14:05:07 03:16:52:08 03:16:55:19 
*FROM CLIP NAME:  104_04
000168  A0043C005_240124_181938_H1EEA                                                                                                     V     C        20:22:19:13 20:22:23:01 03:16:55:19 03:16:59:07 
*FROM CLIP NAME:  104A_01_CU
000169  A0043C004_240124_180942_H1EEA                                                                                                     V     C        20:14:10:22 20:14:38:02 03:16:59:07 03:17:26:11 
*FROM CLIP NAME:  104_04
000170  A0043C005_240124_181938_H1EEA                                                                                                     V     C        20:22:50:19 20:22:57:13 03:17:26:11 03:17:33:05 
*FROM CLIP NAME:  104A_01_CU
000171  A0046C004_240125_123451_H1EEA                                                                                                     V     C        14:35:42:00 14:35:46:14 03:17:33:05 03:17:37:19 
*FROM CLIP NAME:  105_04
000172  A0046C006_240125_124328_H1EEA                                                                                                     V     C        14:46:31:21 14:46:33:12 03:17:37:19 03:17:39:10 
*FROM CLIP NAME:  105A_02
000173  A0046C006_240125_124328_H1EEA                                                                                                     V     C        14:46:33:12 14:46:37:21 03:17:39:10 03:17:43:19 
*FROM CLIP NAME:  105A_02
000174  A0046C003_240125_123307_H1EEA                                                                                                     V     C        14:34:03:17 14:34:25:18 03:17:43:19 03:18:05:20 
*FROM CLIP NAME:  105_03
000175  A0048C002_240125_162924_H1EEA                                                                                                     V     C        18:30:16:20 18:30:19:03 03:18:05:20 03:18:08:03 
*FROM CLIP NAME:  105J_02
000176  A0046C009_240125_131903_H1EEA                                                                                                     V     C        15:20:09:08 15:20:18:07 03:18:08:03 03:18:17:02 
*FROM CLIP NAME:  105C_02
000177  A0048C004_240125_163758_H1EEA                                                                                                     V     C        18:38:53:17 18:39:00:00 03:18:17:02 03:18:23:09 
*FROM CLIP NAME:  105J_04
000178  A0046C011_240125_132935_H1EEA                                                                                                     V     C        15:30:59:16 15:31:10:11 03:18:23:09 03:18:34:04 
*FROM CLIP NAME:  105D_01_WIDE DOLLY PUSH
000179  A0048C004_240125_163758_H1EEA                                                                                                     V     C        18:39:10:11 18:39:19:11 03:18:34:04 03:18:43:04 
*FROM CLIP NAME:  105J_04
000180  A0046C008_240125_131602_H1EEA                                                                                                     V     C        15:17:52:12 15:17:57:06 03:18:43:04 03:18:47:22 
*FROM CLIP NAME:  105C_01_WIDE
000181  A0048C002_240125_162924_H1EEA                                                                                                     V     C        18:30:55:04 18:31:01:01 03:18:47:22 03:18:53:19 
*FROM CLIP NAME:  105J_02
000182  A0046C010_240125_132219_H1EEA                                                                                                     V     C        15:24:15:00 15:24:17:15 03:18:53:19 03:18:56:10 
*FROM CLIP NAME:  105C_03
000183  A0048C005_240125_170827_H1EEA                                                                                                     V     C        19:09:35:14 19:09:37:22 03:18:56:10 03:18:58:18 
*FROM CLIP NAME:  105K_01_MED WLK INTO CU
000184  A0048C002_240125_162924_H1EEA                                                                                                     V     C        18:31:06:03 18:31:08:02 03:18:58:18 03:19:00:17 
*FROM CLIP NAME:  105J_02
000185  A0046C014_240125_134937_H1EEA                                                                                                     V     C        15:50:43:01 15:50:46:06 03:19:00:17 03:19:03:22 
*FROM CLIP NAME:  105E_03
000186  A0048C006_240125_171134_H1EEA                                                                                                     V     C        19:13:02:19 19:13:27:09 03:19:03:22 03:19:28:12 
*FROM CLIP NAME:  105K_02
000187  A0048C002_240125_162924_H1EEA                                                                                                     V     C        18:31:21:11 18:31:24:04 03:19:28:12 03:19:31:05 
*FROM CLIP NAME:  105J_02
000188  A0048C009_240125_171933_H1EEA                                                                                                     V     C        19:21:34:08 19:21:34:18 03:19:31:05 03:19:31:15 
*FROM CLIP NAME:  105K_05
000189  B0036C001_240125_194316_H1ECZ                                                                                                     V     C        19:44:34:18 19:44:35:22 03:19:31:15 03:19:32:19 
*FROM CLIP NAME:  105L_01_WIDE HALLWAY
000190  B0036C007_240125_201812_H1ECZ                                                                                                     V     C        20:19:29:12 20:19:31:21 03:19:32:19 03:19:35:04 
*FROM CLIP NAME:  105P_02
000191  A0048C002_240125_162924_H1EEA                                                                                                     V     C        18:31:44:13 18:31:46:02 03:19:35:04 03:19:36:17 
*FROM CLIP NAME:  105J_02
000192  B0037C003_240125_210636_H1ECZ                                                                                                     V     C        21:08:04:17 21:08:06:16 03:19:36:17 03:19:38:16 
*FROM CLIP NAME:  105T_03
000193  B0036C003_240125_194942_H1ECZ                                                                                                     V     C        19:51:11:22 19:51:13:20 03:19:38:16 03:19:40:14 
*FROM CLIP NAME:  105M_01_WIDE HH TO MCU
000194  A0047C001_240125_140649_H1EEA                                                                                                     V     C        16:08:30:11 16:08:33:23 03:19:40:14 03:19:44:02 
*FROM CLIP NAME:  105G_01_WIDE
000195  B0036C012_240125_203540_H1ECZ                                                                                                     V     C        20:37:09:03 20:37:12:22 03:19:44:02 03:19:47:21 
*FROM CLIP NAME:  105R_02
000196  B0036C004_240125_200414_H1ECZ                                                                                                     V     C        20:06:29:01 20:06:34:05 03:19:47:21 03:19:53:01 
*FROM CLIP NAME:  105N_01_MED HH
000197  A0048C002_240125_162924_H1EEA                                                                                                     V     C        18:31:52:10 18:31:57:01 03:19:53:01 03:19:57:16 
*FROM CLIP NAME:  105J_02
000198  B0036C012_240125_203540_H1ECZ                                                                                                     V     C        20:37:17:17 20:37:20:21 03:19:57:16 03:20:00:20 
*FROM CLIP NAME:  105R_02
000199  A0048C001_240125_162258_H1EEA                                                                                                     V     C        18:25:47:05 18:25:52:00 03:20:00:20 03:20:05:15 
*FROM CLIP NAME:  105J_01
000200  B0036C012_240125_203540_H1ECZ                                                                                                     V     C        20:37:25:13 20:37:30:17 03:20:05:15 03:20:10:19 
*FROM CLIP NAME:  105R_02
000201  B0036C004_240125_200414_H1ECZ                                                                                                     V     C        20:06:46:18 20:06:51:12 03:20:10:19 03:20:15:13 
*FROM CLIP NAME:  105N_01_MED HH
000202  B0036C012_240125_203540_H1ECZ                                                                                                     V     C        20:37:38:09 20:37:40:00 03:20:15:13 03:20:17:04 
*FROM CLIP NAME:  105R_02
000203  A0048C002_240125_162924_H1EEA                                                                                                     V     C        18:32:11:06 18:32:14:19 03:20:17:04 03:20:20:17 
*FROM CLIP NAME:  105J_02
000204  B0036C004_240125_200414_H1ECZ                                                                                                     V     C        20:06:57:20 20:07:09:11 03:20:20:17 03:20:32:08 
*FROM CLIP NAME:  105N_01_MED HH
000205  A0047C002_240125_142216_H1EEA                                                                                                     V     C        16:23:11:08 16:23:13:16 03:20:32:08 03:20:34:16 
*FROM CLIP NAME:  105H_01_WIDE
000206  B0037C005_240125_212834_H1ECZ                                                                                                     V     C        21:30:16:11 21:30:19:11 03:20:34:16 03:20:37:16 
*FROM CLIP NAME:  105U_01_ME REV LOOK BK A O
000207  A0050C002_240126_133515_H1EEA                                                                                                     V     C        15:36:11:04 15:36:32:03 03:20:37:16 03:20:58:15 
*FROM CLIP NAME:  108_02
000208  A0050C004_240126_135300_H1EEA                                                                                                     V     C        15:54:19:04 15:54:22:16 03:20:58:15 03:21:02:03 
*FROM CLIP NAME:  V108A_02
000209  A0050C002_240126_133515_H1EEA                                                                                                     V     C        15:36:35:15 15:36:45:04 03:21:02:03 03:21:11:16 
*FROM CLIP NAME:  108_02
000210  A0050C003_240126_135102_H1EEA                                                                                                     V     C        15:52:26:10 15:52:30:02 03:21:11:16 03:21:15:08 
*FROM CLIP NAME:  V108A_01_CU INSERT
000211  A0039C002_240124_080643_H1EEA                                                                                                     V     C        10:08:37:00 10:08:40:01 03:21:15:08 03:21:18:09 
*FROM CLIP NAME:  107_02
000212  A0039C006_240124_084315_H1EEA                                                                                                     V     C        10:44:44:03 10:44:52:04 03:21:18:09 03:21:26:10 
*FROM CLIP NAME:  107B_01_CU
000213  A0039C006_240124_084315_H1EEA                                                                                                     V     C        10:44:52:04 10:44:56:06 03:21:26:10 03:21:30:12 
*FROM CLIP NAME:  107B_01_CU
000214  A0040C005_240124_114212_H1EEA                                                                                                     V     C        13:43:22:23 13:43:47:15 03:21:30:12 03:21:55:04 
*FROM CLIP NAME:  110_05
000215  B0034C004_240124_115643_H1ECZ                                                                                                     V     C        11:58:21:04 11:58:21:05 03:21:55:04 03:22:01:03 
M2      B0034C004_240124_115643_H1ECZ                                                                                                             -024.0 11:58:21:04 
*FROM CLIP NAME:  113B_01_BROLL
000216  A0041C003_240124_140018_H1EEA                                                                                                     V     C        16:02:03:08 16:02:28:16 03:22:01:03 03:22:26:11 
*FROM CLIP NAME:  112_03
000217  A0041C007_240124_145054_H1EEA                                                                                                     V     C        16:52:21:11 16:52:34:05 03:22:26:11 03:22:39:05 
*FROM CLIP NAME:  112B_02
000218  A0041C005_240124_142349_H1EEA                                                                                                     V     C        16:25:33:16 16:25:41:18 03:22:39:05 03:22:47:07 
*FROM CLIP NAME:  112A_02
000219  A0041C010_240124_150840_H1EEA                                                                                                     V     C        17:11:18:06 17:11:22:08 03:22:47:07 03:22:51:09 
*FROM CLIP NAME:  112B_05
000220  A0041C005_240124_142349_H1EEA                                                                                                     V     C        16:28:35:17 16:28:41:03 03:22:51:09 03:22:56:19 
*FROM CLIP NAME:  112A_02
000221  A0041C010_240124_150840_H1EEA                                                                                                     V     C        17:11:27:18 17:12:08:09 03:22:56:19 03:23:37:10 
*FROM CLIP NAME:  112B_05
000222  A0041C012_240124_152305_H1EEA                                                                                                     V     C        17:25:18:06 17:25:21:06 03:23:37:10 03:23:40:10 
*FROM CLIP NAME:  112C_02
000223  A0041C005_240124_142349_H1EEA                                                                                                     V     C        16:29:20:22 16:29:23:16 03:23:40:10 03:23:43:04 
*FROM CLIP NAME:  112A_02
000224  A0041C010_240124_150840_H1EEA                                                                                                     V     C        17:12:21:09 17:12:32:01 03:23:43:04 03:23:53:20 
*FROM CLIP NAME:  112B_05
000225  A0041C005_240124_142349_H1EEA                                                                                                     V     C        16:29:45:10 16:29:51:01 03:23:53:20 03:23:59:11 
*FROM CLIP NAME:  112A_02
000226  B0034C002_240124_113335_H1ECZ                                                                                                     V     C        11:35:08:13 11:35:29:18 03:23:59:11 03:24:20:16 
*FROM CLIP NAME:  113_02
000227  B0034C003_240124_114717_H1ECZ                                                                                                     V     C        11:51:23:21 11:51:51:06 03:24:20:16 03:24:48:01 
*FROM CLIP NAME:  113A_01
000228  A0002C012_240110_101141_H1EEA                                                                                                     V     C        12:14:57:14 12:15:02:09 03:24:48:01 03:24:52:20 
*FROM CLIP NAME:  036A_01_CU
000229  B_0075C004_240204_212411_H1ECZ                                                                                                    V     C        21:27:52:05 21:27:56:19 03:24:52:20 03:24:57:10 
*FROM CLIP NAME:  31A_01_CU
000230  B0023C013_240119_180246_A1ECZ                                                                                                     V     C        18:04:54:12 18:05:01:11 03:24:57:10 03:25:04:09 
*FROM CLIP NAME:  033B_01_MED
000231  B0034C003_240124_114717_H1ECZ                                                                                                     V     C        11:52:23:23 11:52:30:16 03:25:04:09 03:25:11:02 
*FROM CLIP NAME:  113A_01
000232  B0034C005_240124_120536_H1ECZ                                                                                                     V     C        12:06:56:00 12:06:59:01 03:25:11:02 03:25:14:03 
*FROM CLIP NAME:  113B_02_BROLL
000233  B0037C010_240125_221411_H1ECZ                                                                                                     V     C        22:15:30:16 22:15:36:11 03:25:14:03 03:25:19:22 
*FROM CLIP NAME:  111_04
000234  A0050C007_240126_144235_H1EEA                                                                                                     V     C        16:43:31:08 16:43:37:12 03:25:19:22 03:25:26:02 
*FROM CLIP NAME:  115A_01_CU OTS
000235  A0051C005_240126_163525_H1EEA                                                                                                     V     C        18:38:11:01 18:38:16:01 03:25:26:02 03:25:31:02 
*FROM CLIP NAME:  115C_02
000236  A0051C003_240126_160920_H1EEA                                                                                                     V     C        18:11:58:09 18:12:01:05 03:25:31:02 03:25:33:22 
*FROM CLIP NAME:  115B_03
000237  A0051C005_240126_163525_H1EEA                                                                                                     V     C        18:38:18:11 18:38:23:11 03:25:33:22 03:25:38:22 
*FROM CLIP NAME:  115C_02
000238  A0051C003_240126_160920_H1EEA                                                                                                     V     C        18:12:01:14 18:12:03:21 03:25:38:22 03:25:41:05 
*FROM CLIP NAME:  115B_03
000239  A0051C005_240126_163525_H1EEA                                                                                                     V     C        18:39:29:01 18:39:30:23 03:25:41:05 03:25:43:03 
*FROM CLIP NAME:  115C_02
000240  A0051C003_240126_160920_H1EEA                                                                                                     V     C        18:12:04:12 18:12:08:11 03:25:43:03 03:25:47:02 
*FROM CLIP NAME:  115B_03
000241  A0051C005_240126_163525_H1EEA                                                                                                     V     C        18:39:31:11 18:39:36:00 03:25:47:02 03:25:51:15 
*FROM CLIP NAME:  115C_02
000242  A0050C009_240126_144754_H1EEA                                                                                                     V     C        16:49:29:21 16:49:33:19 03:25:51:15 03:25:55:13 
*FROM CLIP NAME:  115A_03
000243  A0051C004_240126_163012_H1EEA                                                                                                     V     C        18:31:37:16 18:31:40:09 03:25:55:13 03:25:58:06 
*FROM CLIP NAME:  115C_01_CU
000244  A0051C004_240126_163012_H1EEA                                                                                                     V     C        18:31:40:09 18:31:44:11 03:25:58:06 03:26:02:08 
*FROM CLIP NAME:  115C_01_CU
000245  A0044C004_240124_191511_H1EEA                                                                                                     V     C        21:16:13:05 21:16:37:01 03:26:02:08 03:26:26:04 
*FROM CLIP NAME:  114_03
000246  B0040C001_240127_140316_H1ECZ                                                                                                     V     C        14:04:43:14 14:04:51:01 03:26:26:04 03:26:33:15 
*FROM CLIP NAME:  116_01_CU
000247  B0040C005_240127_150202_H1ECZ                                                                                                     V     C        15:04:00:05 15:04:10:17 03:26:33:15 03:26:44:03 
*FROM CLIP NAME:  116A_02
000248  B0040C001_240127_140316_H1ECZ                                                                                                     V     C        14:05:00:01 14:05:07:02 03:26:44:03 03:26:51:04 
*FROM CLIP NAME:  116_01_CU
000249  B0040C006_240127_150742_H1ECZ                                                                                                     V     C        15:09:30:16 15:09:43:04 03:26:51:04 03:27:03:16 
*FROM CLIP NAME:  116A_03_ECU
000250  B0040C002_240127_141022_H1ECZ                                                                                                     V     C        14:13:13:05 14:13:22:03 03:27:03:16 03:27:12:14 
*FROM CLIP NAME:  116_02
000251  A0052C001_240126_171826_H1EEA                                                                                                     V     C        19:21:39:15 19:21:44:02 03:27:12:14 03:27:17:01 
*FROM CLIP NAME:  117_01_CU BABY
000252  A0053C003_240126_183950_A1EEA                                                                                                     V     C        20:41:40:14 20:41:52:20 03:27:17:01 03:27:29:07 
*FROM CLIP NAME:  117A_03
000253  A0055C001_240126_210136_A1EEA                                                                                                     V     C        23:04:36:13 23:04:43:10 03:27:29:07 03:27:36:04 
*FROM CLIP NAME:  117F_01_CU
000254  A0053C004_240126_191416_A1EEA                                                                                                     V     C        21:15:14:00 21:16:32:03 03:27:36:04 03:28:54:07 
*FROM CLIP NAME:  117B_01_CU
000255  A0054C002_240126_202109_A1EEA                                                                                                     V     C        22:24:10:16 22:24:25:13 03:28:54:07 03:29:09:04 
*FROM CLIP NAME:  117D_02
000256  A0053C006_240126_191957_A1EEA                                                                                                     V     C        21:22:57:06 21:23:07:01 03:29:09:04 03:29:18:23 
*FROM CLIP NAME:  117B_02
000257  A0054C003_240126_204026_A1EEA                                                                                                     V     C        22:42:12:01 22:42:15:19 03:29:18:23 03:29:22:17 
*FROM CLIP NAME:  117E_01_MED
000258  A0053C009_240126_194219_A1EEA                                                                                                     V     C        21:43:50:02 21:43:54:17 03:29:22:17 03:29:27:08 
*FROM CLIP NAME:  117C_02
000259  A0054C004_240126_204638_A1EEA                                                                                                     V     C        22:48:58:11 22:49:06:21 03:29:27:08 03:29:35:18 
*FROM CLIP NAME:  117E_02
000260  A0053C009_240126_194219_A1EEA                                                                                                     V     C        21:44:00:02 21:44:15:05 03:29:35:18 03:29:50:21 
*FROM CLIP NAME:  117C_02
000261  A0054C004_240126_204638_A1EEA                                                                                                     V     C        22:49:22:13 22:49:30:15 03:29:50:21 03:29:58:23 
*FROM CLIP NAME:  117E_02
000262  A0053C008_240126_193806_A1EEA                                                                                                     V     C        21:40:00:15 21:40:06:01 03:29:58:23 03:30:04:09 
*FROM CLIP NAME:  117C_01_CU
000263  A0054C003_240126_204026_A1EEA                                                                                                     V     C        22:43:06:08 22:43:09:06 03:30:04:09 03:30:07:07 
*FROM CLIP NAME:  117E_01_MED
000264  A0053C009_240126_194219_A1EEA                                                                                                     V     C        21:44:32:12 21:44:37:13 03:30:07:07 03:30:12:08 
*FROM CLIP NAME:  117C_02
000265  A0054C002_240126_202109_A1EEA                                                                                                     V     C        22:25:50:19 22:25:56:02 03:30:12:08 03:30:17:15 
*FROM CLIP NAME:  117D_02
000266  A0053C009_240126_194219_A1EEA                                                                                                     V     C        21:44:42:04 21:44:45:08 03:30:17:15 03:30:20:19 
*FROM CLIP NAME:  117C_02
000267  A0054C002_240126_202109_A1EEA                                                                                                     V     C        22:26:00:09 22:26:03:21 03:30:20:19 03:30:24:07 
*FROM CLIP NAME:  117D_02
000268  A0054C002_240126_202109_A1EEA                                                                                                     V     C        22:26:03:21 22:26:03:22 03:30:24:07 03:30:24:08 
*FROM CLIP NAME:  117D_02
000269  A0054C002_240126_202109_A1EEA                                                                                                     V     C        22:26:03:22 22:26:12:07 03:30:24:08 03:30:32:17 
*FROM CLIP NAME:  117D_02
000270  A0053C004_240126_191416_A1EEA                                                                                                     V     C        21:18:03:21 21:18:07:11 03:30:32:17 03:30:36:07 
*FROM CLIP NAME:  117B_01_CU
000271  A0054C002_240126_202109_A1EEA                                                                                                     V     C        22:26:25:12 22:26:28:14 03:30:36:07 03:30:39:09 
*FROM CLIP NAME:  117D_02
000272  A0053C004_240126_191416_A1EEA                                                                                                     V     C        21:18:15:00 21:18:20:13 03:30:39:09 03:30:44:22 
*FROM CLIP NAME:  117B_01_CU
000273  A0054C002_240126_202109_A1EEA                                                                                                     V     C        22:26:58:06 22:27:03:03 03:30:44:22 03:30:49:19 
*FROM CLIP NAME:  117D_02
000274  A0053C008_240126_193806_A1EEA                                                                                                     V     C        21:40:49:01 21:40:51:18 03:30:49:19 03:30:52:12 
*FROM CLIP NAME:  117C_01_CU
000275  A0054C001_240126_201133_A1EEA                                                                                                     V     C        22:17:10:06 22:17:14:17 03:30:52:12 03:30:56:23 
*FROM CLIP NAME:  117D_01_MED
000276  A0052C001_240126_171826_H1EEA                                                                                                     V     C        19:23:56:03 19:23:59:18 03:30:56:23 03:31:00:14 
*FROM CLIP NAME:  117_01_CU BABY
000277  A0070C001_240207_110327_H1EEA                                                                                                     V     C        13:04:28:13 13:04:31:04 03:31:06:03 03:31:08:18 
*FROM CLIP NAME:  118_01_CU INSERT PHONE
000278  A0070C002_240207_113405_H1EEA                                                                                                     V     C        13:35:45:22 13:35:50:08 03:31:08:18 03:31:13:04 
*FROM CLIP NAME:  118A_01_MED
000279  A0070C004_240207_114639_H1EEA                                                                                                     V     C        13:47:51:13 13:47:55:05 03:31:13:04 03:31:16:20 
*FROM CLIP NAME:  118B_01_MED
000280  A0070C007_240207_120528_H1EEA                                                                                                     V     C        14:06:41:05 14:06:42:22 03:31:16:20 03:31:18:13 
*FROM CLIP NAME:  118C_01_MED
000281  A0070C005_240207_114947_H1EEA                                                                                                     V     C        13:51:15:09 13:51:19:13 03:31:18:13 03:31:22:17 
*FROM CLIP NAME:  118B_02
000282  A0070C007_240207_120528_H1EEA                                                                                                     V     C        14:09:20:14 14:09:25:08 03:31:22:17 03:31:27:11 
*FROM CLIP NAME:  118C_01_MED
000283  A0070C004_240207_114639_H1EEA                                                                                                     V     C        13:48:20:21 13:48:24:10 03:31:27:11 03:31:31:00 
*FROM CLIP NAME:  118B_01_MED
000284  A0070C007_240207_120528_H1EEA                                                                                                     V     C        14:09:31:11 14:09:34:14 03:31:31:00 03:31:34:03 
*FROM CLIP NAME:  118C_01_MED
000285  A0070C006_240207_115415_H1EEA                                                                                                     V     C        13:56:18:12 13:56:20:19 03:31:34:03 03:31:36:10 
*FROM CLIP NAME:  118B_03
000286  A0070C007_240207_120528_H1EEA                                                                                                     V     C        14:10:20:11 14:10:21:13 03:31:36:10 03:31:37:12 
*FROM CLIP NAME:  118C_01_MED
000287  A0070C004_240207_114639_H1EEA                                                                                                     V     C        13:48:33:23 13:48:37:01 03:31:37:12 03:31:40:14 
*FROM CLIP NAME:  118B_01_MED
000288  B0064C001_240203_124622_H1ECZ                                                                                                     V     C        12:50:46:00 12:50:59:13 03:31:40:14 03:31:54:03 
*FROM CLIP NAME:  119_01_CU ZOOM OUT MED
000289  B0064C003_240203_134359_H1ECZ                                                                                                     V     C        13:47:57:20 13:48:00:05 03:31:54:03 03:31:56:12 
*FROM CLIP NAME:  119B_01_MED OTS
000290  B0064C002_240203_131500_H1ECZ                                                                                                     V     C        13:19:40:04 13:19:44:13 03:31:56:12 03:32:00:21 
*FROM CLIP NAME:  119A_01_MED OTS
000291  B0064C004_240203_134805_H1ECZ                                                                                                     V     C        13:50:14:02 13:50:21:11 03:32:00:21 03:32:08:06 
*FROM CLIP NAME:  119B_02
000292  B0064C002_240203_131500_H1ECZ                                                                                                     V     C        13:20:00:05 13:20:06:00 03:32:08:06 03:32:14:01 
*FROM CLIP NAME:  119A_01_MED OTS
000293  B0064C003_240203_134359_H1ECZ                                                                                                     V     C        13:47:26:18 13:47:31:08 03:32:14:01 03:32:18:15 
*FROM CLIP NAME:  119B_01_MED OTS
000294  B0064C002_240203_131500_H1ECZ                                                                                                     V     C        13:20:14:03 13:20:18:01 03:32:18:15 03:32:22:13 
*FROM CLIP NAME:  119A_01_MED OTS
000295  B0065C001_240203_140738_H1ECZ                                                                                                     V     C        14:13:14:07 14:13:22:19 03:32:22:13 03:32:31:01 
*FROM CLIP NAME:  120_01_MED ZOOM IN OUT
000296  B0067C002_240203_182511_H1ECZ                                                                                                     V     C        18:27:17:17 18:27:24:10 03:32:31:01 03:32:37:18 
*FROM CLIP NAME:  120E_02
000297  B0065C009_240203_161216_H1ECZ                                                                                                     V     C        16:14:22:16 16:14:25:10 03:32:37:18 03:32:40:12 
*FROM CLIP NAME:  120B_02
000298  B0067C002_240203_182511_H1ECZ                                                                                                     V     C        18:27:27:04 18:27:35:14 03:32:40:12 03:32:48:22 
*FROM CLIP NAME:  120E_02
000299  B0065C009_240203_161216_H1ECZ                                                                                                     V     C        16:14:45:12 16:14:55:01 03:32:48:22 03:32:58:11 
*FROM CLIP NAME:  120B_02
000300  B0067C002_240203_182511_H1ECZ                                                                                                     V     C        18:27:51:02 18:27:53:22 03:32:58:11 03:33:01:07 
*FROM CLIP NAME:  120E_02
000301  B0065C001_240203_140738_H1ECZ                                                                                                     V     C        14:10:38:22 14:10:44:10 03:33:01:07 03:33:06:19 
*FROM CLIP NAME:  120_01_MED ZOOM IN OUT
000302  B0067C002_240203_182511_H1ECZ                                                                                                     V     C        18:28:04:05 18:28:06:03 03:33:06:19 03:33:08:17 
*FROM CLIP NAME:  120E_02
000303  B0065C009_240203_161216_H1ECZ                                                                                                     V     C        16:15:15:18 16:15:18:06 03:33:08:17 03:33:11:05 
*FROM CLIP NAME:  120B_02
000304  B0067C001_240203_181828_H1ECZ                                                                                                     V     C        18:20:59:08 18:21:16:13 03:33:11:05 03:33:28:10 
*FROM CLIP NAME:  120E_01_CU OTS
000305  B0065C009_240203_161216_H1ECZ                                                                                                     V     C        16:15:37:23 16:15:41:14 03:33:28:10 03:33:32:01 
*FROM CLIP NAME:  120B_02
000306  B0067C002_240203_182511_H1ECZ                                                                                                     V     C        18:28:46:02 18:28:48:23 03:33:32:01 03:33:34:22 
*FROM CLIP NAME:  120E_02
000307  B0065C009_240203_161216_H1ECZ                                                                                                     V     C        16:15:44:11 16:15:46:02 03:33:34:22 03:33:36:13 
*FROM CLIP NAME:  120B_02
000308  B0067C001_240203_181828_H1ECZ                                                                                                     V     C        18:21:27:03 18:21:30:09 03:33:36:13 03:33:39:19 
*FROM CLIP NAME:  120E_01_CU OTS
000309  B0065C003_240203_150905_H1ECZ                                                                                                     V     C        15:12:15:01 15:12:21:23 03:33:39:19 03:33:46:17 
*FROM CLIP NAME:  120A_02_MED
000310  B0065C009_240203_161216_H1ECZ                                                                                                     V     C        16:16:02:16 16:16:11:21 03:33:46:17 03:33:55:22 
*FROM CLIP NAME:  120B_02
000311  B0067C002_240203_182511_H1ECZ                                                                                                     V     C        18:29:04:18 18:29:18:06 03:33:55:22 03:34:09:10 
*FROM CLIP NAME:  120E_02
000312  B0065C009_240203_161216_H1ECZ                                                                                                     V     C        16:16:57:22 16:17:03:03 03:34:09:10 03:34:14:15 
*FROM CLIP NAME:  120B_02
000313  B0067C003_240203_183200_H1ECZ                                                                                                     V     C        18:36:45:16 18:36:50:12 03:34:14:15 03:34:19:11 
*FROM CLIP NAME:  120E_03
000314  B0065C009_240203_161216_H1ECZ                                                                                                     V     C        16:17:09:16 16:17:15:16 03:34:19:11 03:34:25:11 
*FROM CLIP NAME:  120B_02
000315  B0067C002_240203_182511_H1ECZ                                                                                                     V     C        18:30:10:05 18:30:19:15 03:34:25:11 03:34:34:21 
*FROM CLIP NAME:  120E_02
000316  B0065C009_240203_161216_H1ECZ                                                                                                     V     C        16:17:24:22 16:17:27:16 03:34:34:21 03:34:37:15 
*FROM CLIP NAME:  120B_02
000317  B0067C002_240203_182511_H1ECZ                                                                                                     V     C        18:30:22:05 18:30:28:13 03:34:37:15 03:34:43:23 
*FROM CLIP NAME:  120E_02
000318  B0065C009_240203_161216_H1ECZ                                                                                                     V     C        16:17:30:23 16:17:32:19 03:34:43:23 03:34:45:19 
*FROM CLIP NAME:  120B_02
000319  B0067C002_240203_182511_H1ECZ                                                                                                     V     C        18:30:32:17 18:30:44:01 03:34:45:19 03:34:57:03 
*FROM CLIP NAME:  120E_02
000320  B0065C012_240203_164303_H1ECZ                                                                                                     V     C        16:44:37:03 16:44:42:00 03:34:57:03 03:35:02:00 
*FROM CLIP NAME:  120C_01_ECU
000321  B0066C001_240203_165408_H1ECZ                                                                                                     V     C        16:56:01:04 16:56:05:14 03:35:02:00 03:35:06:10 
*FROM CLIP NAME:  120D_01_ECU
000322  B0065C012_240203_164303_H1ECZ                                                                                                     V     C        16:44:46:10 16:44:50:18 03:35:06:10 03:35:10:18 
*FROM CLIP NAME:  120C_01_ECU
000323  B0066C001_240203_165408_H1ECZ                                                                                                     V     C        16:57:45:14 16:57:57:02 03:35:10:18 03:35:22:06 
*FROM CLIP NAME:  120D_01_ECU
000324  B0065C012_240203_164303_H1ECZ                                                                                                     V     C        16:45:01:03 16:45:05:14 03:35:22:06 03:35:26:17 
*FROM CLIP NAME:  120C_01_ECU
000325  B0066C001_240203_165408_H1ECZ                                                                                                     V     C        16:57:59:05 16:58:02:10 03:35:26:17 03:35:29:22 
*FROM CLIP NAME:  120D_01_ECU
000326  B0065C003_240203_150905_H1ECZ                                                                                                     V     C        15:14:31:01 15:14:34:09 03:35:29:22 03:35:33:06 
*FROM CLIP NAME:  120A_02_MED
000327  B0065C001_240203_140738_H1ECZ                                                                                                     V     C        14:11:12:01 14:11:14:16 03:35:33:06 03:35:35:21 
*FROM CLIP NAME:  120_01_MED ZOOM IN OUT
000328  B0008C001_240111_173442_H1ECZ                                                                                                     V     C        17:35:26:22 17:35:30:17 03:35:35:21 03:35:39:16 
*FROM CLIP NAME:  020_01-(B)
000329  B0008C001_240111_173442_H1ECZ                                                                                                     V     C        17:35:30:17 17:35:31:03 03:35:39:16 03:35:40:04 
M2      B0008C001_240111_173442_H1ECZ                                                                                                              019.2 17:35:30:17 
*FROM CLIP NAME:  020_01-(B)
000330  B0044C007_240127_223730_H1ECZ                                                                                                     V     C        22:38:56:23 22:39:07:10 03:35:40:04 03:35:50:15 
*FROM CLIP NAME:  CHAD SAYS ACT
000331  B_0077C003_240205_012105_H1ECZ                                                                                                    V     C        01:22:42:04 01:22:50:07 03:35:50:15 03:35:58:18 
*FROM CLIP NAME:  45_02-(B)
000332  B_0076C009_240205_001533_H1ECZ                                                                                                    V     C        00:17:38:00 00:17:42:06 03:35:58:18 03:36:03:00 
*FROM CLIP NAME:  JEENNY BREAK
000333  B_0076C010_240205_001950_H1ECZ                                                                                                    V     C        00:21:57:11 00:22:01:14 03:36:03:00 03:36:07:03 
*FROM CLIP NAME:  042A_03-(B)
000334  B0009C005_240111_194154_H1ECZ                                                                                                     V     C        19:43:00:22 19:43:07:05 03:36:07:03 03:36:13:10 
*FROM CLIP NAME:  066_05-(B)
000335  A0009C005_240112_112051_H1EEA                                                                                                     V     C        13:23:20:23 13:23:26:04 03:36:13:10 03:36:18:15 
*FROM CLIP NAME:  027D_01-(A)
000336  B_0075C001_240204_210111_H1ECZ                                                                                                    V     C        21:02:53:10 21:02:56:12 03:36:18:15 03:36:21:17 
*FROM CLIP NAME:  31_01-(B)
000337  B_0075C001_240204_210111_H1ECZ                                                                                                    V     C        21:03:02:04 21:03:04:08 03:36:21:17 03:36:23:21 
*FROM CLIP NAME:  31_01-(B)
000338  B0069C001_240203_211438_H1ECZ                                                                                                     V     C        21:16:54:01 21:17:02:00 03:36:23:21 03:36:31:20 
*FROM CLIP NAME:  043B_01-(B)
000339  A0076C003_240208_110413_H1EEA                                                                                                     V     C        13:11:51:07 13:11:56:06 03:36:31:20 03:36:36:19 
*FROM CLIP NAME:  G CALL C JONAH 002
000340  A0070C007_240207_120528_H1EEA                                                                                                     V     C        14:08:40:13 14:08:45:10 03:36:36:19 03:36:41:16 
*FROM CLIP NAME:  G CALL C JONAH 001
000341  A0062C004_240131_201437_H1EEA                                                                                                     V     C        22:17:04:12 22:17:09:09 03:36:41:16 03:36:46:13 
*FROM CLIP NAME:  011_04-(A)
000342  B0043C003_240127_210711_H1ECZ                                                                                                     V     C        21:08:37:09 21:08:43:21 03:36:46:13 03:36:53:01 
*FROM CLIP NAME:  C TOO LONG A PAUSE*
000343  B0061C001_240202_160401_H1ECZ                                                                                                     V     C        16:05:20:07 16:05:22:20 03:36:53:01 03:36:55:14 
*FROM CLIP NAME:  063_01-(B)
000344  A0064C005_240201_113356_H1EEA                                                                                                     V     C        13:34:59:04 13:35:02:09 03:36:55:14 03:36:58:19 
*FROM CLIP NAME:  007_05-(A)
000345  B_0016C004_240117_085314_H1ECZ                                                                                                    V     C        08:54:37:08 08:54:44:07 03:36:58:19 03:37:05:18 
*FROM CLIP NAME:  029_03
000346  B_0016C006_240117_085705_H1ECZ                                                                                                    V     C        08:58:42:01 08:58:50:03 03:37:05:18 03:37:13:20 
*FROM CLIP NAME:  029_05-(B)
000347  A0042C004_240124_163216_H1EEA                                                                                                     V     C        18:33:39:16 18:33:45:16 03:37:13:20 03:37:19:20 
*FROM CLIP NAME:  103A_01-(A)
000348  B_0075C001_240204_210111_H1ECZ                                                                                                    V     C        21:03:25:07 21:03:29:00 03:37:19:20 03:37:23:13 
*FROM CLIP NAME:  31_01-(B)
000349  A0042C006_240124_164910_H1EEA                                                                                                     V     C        18:49:55:15 18:49:59:00 03:37:23:13 03:37:26:22 
*FROM CLIP NAME:  103B_01-(A)
000350  B0008C004_240111_174328_H1ECZ                                                                                                     V     C        17:44:27:11 17:44:33:02 03:37:26:22 03:37:32:13 
*FROM CLIP NAME:  020_04-(B)
000351  A0042C004_240124_163216_H1EEA                                                                                                     V     C        18:33:44:17 18:33:48:10 03:37:32:13 03:37:36:06 
*FROM CLIP NAME:  103A_01-(A)
000352  A0056C002_240131_100904_H1EEA                                                                                                     V     C        12:12:30:22 12:12:34:15 03:37:36:06 03:37:39:23 
*FROM CLIP NAME:  006_02-(A)
000353  A0056C002_240131_100904_H1EEA                                                                                                     V     C        12:12:36:19 12:12:41:03 03:37:39:23 03:37:44:07 
*FROM CLIP NAME:  006_02-(A)
000354  A0045C006_240124_195859_H1EEA                                                                                                     V     C        22:00:39:01 22:00:45:09 03:37:44:07 03:37:50:15 
*FROM CLIP NAME:  SUZANNE FLUB 01
000355  A0045C006_240124_195859_H1EEA                                                                                                     V     C        22:00:49:14 22:00:51:17 03:37:50:15 03:37:52:18 
*FROM CLIP NAME:  SUZANNE FLUB 01
000356  A0045C006_240124_195859_H1EEA                                                                                                     V     C        21:59:43:05 21:59:43:19 03:37:52:18 03:37:53:08 
*FROM CLIP NAME:  A103_06-(A)
000357  A0045C006_240124_195859_H1EEA                                                                                                     V     C        22:01:47:11 22:01:54:00 03:37:53:08 03:37:59:21 
*FROM CLIP NAME:  SUZANNE FLUB 02
000358  B0061C006_240202_172705_H1ECZ                                                                                                     V     C        17:28:51:10 17:28:56:13 03:37:59:21 03:38:05:00 
*FROM CLIP NAME:  C LOOKING FOR MARK
000359  B0064C001_240203_124622_H1ECZ                                                                                                     V     C        12:49:58:01 12:49:59:23 03:38:05:00 03:38:06:22 
*FROM CLIP NAME:  119_01-(B).SUB.01
000360  B0064C001_240203_124622_H1ECZ                                                                                                     V     C        12:50:07:21 12:50:10:20 03:38:06:22 03:38:09:21 
*FROM CLIP NAME:  119_01-(B).SUB.01
000361  A0004C018_240110_161505_H1EEA                                                                                                     V     C        18:17:18:03 18:17:23:06 03:38:09:21 03:38:15:00 
*FROM CLIP NAME:  OLIVIA UNINTENTIONAL TEAR
000362  A0004C018_240110_161505_H1EEA                                                                                                     V     C        18:17:27:07 18:17:29:08 03:38:15:00 03:38:17:01 
*FROM CLIP NAME:  OLIVIA UNINTENTIONAL TEAR
000363  B0064C001_240203_124622_H1ECZ                                                                                                     V     C        12:51:55:18 12:51:59:10 03:38:17:01 03:38:20:17 
*FROM CLIP NAME:  119_01-(B).SUB.01
000364  A0059C002_240131_164941_H1EEA                                                                                                     V     C        18:50:39:17 18:50:42:10 03:38:20:17 03:38:23:10 
*FROM CLIP NAME:  010B_01-(A)
000365  B0103C001_240211_155529_H1ECZ                                                                                                     V     C        15:57:36:20 15:57:38:12 03:38:23:10 03:38:25:02 
*FROM CLIP NAME:  052C_01-(B)
000366  B0009C005_240111_194154_H1ECZ                                                                                                     V     C        19:42:37:21 19:42:39:13 03:38:25:02 03:38:26:13 
M2      B0009C005_240111_194154_H1ECZ                                                                                                              027.6 19:42:37:21 
*FROM CLIP NAME:  CONNOR OLIVIA DANCING
000367  B0047C006_240128_161205_H1ECZ                                                                                                     V     C        16:13:38:18 16:13:41:06 03:38:26:13 03:38:29:01 
*FROM CLIP NAME:  062G_01-(B)
000368  B0064C001_240203_124622_H1ECZ                                                                                                     V     C        12:51:59:23 12:52:03:22 03:38:29:01 03:38:33:00 
*FROM CLIP NAME:  119_01-(B).SUB.01
000369  B0029C007_240120_221431_H1ECZ                                                                                                     V     C        22:15:49:20 22:15:52:01 03:38:33:00 03:38:35:05 
*FROM CLIP NAME:  004A_01_MW
000370  A0053C001_240126_183443_A1EEA                                                                                                     V     C        20:36:28:04 20:36:29:10 03:38:35:05 03:38:36:11 
*FROM CLIP NAME:  C BABY WHICH I LOVE
000371  A0059C003_240131_165058_H1EEA                                                                                                     V     C        18:52:03:04 18:52:05:03 03:38:36:11 03:38:38:10 
*FROM CLIP NAME:  010B_02-(A)
000372  B0012C002_240113_160921_H1ECZ                                                                                                     V     C        16:10:16:00 16:10:17:09 03:38:38:10 03:38:39:19 
*FROM CLIP NAME:  023_02
000373  B0012C002_240113_160921_H1ECZ                                                                                                     V     C        16:10:59:22 16:11:01:06 03:38:39:19 03:38:41:03 
*FROM CLIP NAME:  023_02
000374  B0012C001_240113_155920_H1ECZ                                                                                                     V     C        16:06:44:10 16:06:46:20 03:38:41:03 03:38:43:13 
*FROM CLIP NAME:  023_01-(B)
000375  B_0075C001_240204_210111_H1ECZ                                                                                                    V     C        21:03:31:23 21:03:36:16 03:38:43:13 03:38:48:06 
*FROM CLIP NAME:  31_01-(B)
000376  A0059C002_240131_164941_H1EEA                                                                                                     V     C        18:50:52:03 18:50:55:15 03:38:48:06 03:38:51:18 
*FROM CLIP NAME:  010B_01-(A)
000377  A_0021C001_240117_160836_H1EEA                                                                                                    V     C        18:14:27:23 18:14:29:16 03:38:51:18 03:38:53:11 
*FROM CLIP NAME:  121D_01_MED CU
000378  A_0020C006_240117_153039_H1EEA                                                                                                    V     C        17:31:57:07 17:32:00:08 03:38:53:11 03:38:56:12 
*FROM CLIP NAME:  121B_03
000379  A_0020C001_240117_141120_H1EEA                                                                                                    V     C        16:13:08:03 16:13:10:10 03:38:56:12 03:38:58:19 
*FROM CLIP NAME:  121_01_MED
000380  A_0020C002_240117_143357_H1EEA                                                                                                    V     C        16:36:00:09 16:36:05:19 03:38:58:19 03:39:04:05 
*FROM CLIP NAME:  121A_01_MED
000381  A_0021C001_240117_160836_H1EEA                                                                                                    V     C        18:11:38:23 18:11:42:11 03:39:04:05 03:39:07:17 
*FROM CLIP NAME:  121D_01_MED CU
000382  A_0020C006_240117_153039_H1EEA                                                                                                    V     C        17:34:57:16 17:35:01:09 03:39:07:17 03:39:11:10 
*FROM CLIP NAME:  121B_03-(A)
000383  THREESOME_TAILLEADER.MOV                                                                                                          V     C        01:00:08:00 01:00:14:00 03:39:23:15 03:39:29:15 
*FROM CLIP NAME:  THREESOME_TAILLEADER
000384  THREESOME_TAILLEADER.MOV                                                                                                          V     C        01:00:13:00 01:00:14:00 03:39:29:15 03:39:30:15 
*FROM CLIP NAME:  THREESOME_TAILLEADER